<svg width="24" height="24" viewBox="0 0 24 24" fill="none" xmlns="http://www.w3.org/2000/svg">
<path d="M11.9998 15.9438V7.36548C12.7694 6.428 14.4296 5.77734 16.3561 5.77734C18.0695 5.77734 19.57 6.29159 20.4219 7.06068C20.6107 7.23361 20.7124 7.47026 20.7124 7.716V18.2011C20.7124 18.5425 20.3251 18.7654 20.0057 18.6016C19.1199 18.1511 17.8178 17.8689 16.3561 17.8689C14.4296 17.8689 12.7693 18.365 11.9997 19.0795C11.2301 18.365 9.56987 17.8689 7.64341 17.8689C6.18163 17.8689 4.87958 18.1511 3.9938 18.6016C3.67434 18.7654 3.28711 18.5425 3.28711 18.2011V7.716C3.28711 7.47026 3.38876 7.23361 3.57753 7.06068C4.42943 6.29159 5.92993 5.77734 7.64341 5.77734C8.43723 5.77734 9.18748 5.88656 9.84577 6.08225" stroke="#861CC4" stroke-width="2" stroke-linecap="round" stroke-linejoin="round"/>
</svg>
