<svg width="24" height="24" viewBox="0 0 24 24" fill="none" xmlns="http://www.w3.org/2000/svg">
<path d="M6.13333 7.26667C7.31154 7.26667 8.26667 6.31154 8.26667 5.13333C8.26667 3.95513 7.31154 3 6.13333 3M6.13333 7.26667C4.95513 7.26667 4 6.31154 4 5.13333C4 3.95513 4.95513 3 6.13333 3M6.13333 7.26667H17.8667C18.9333 7.26667 20 6.4 20 5.13333C20 3.86667 18.9333 3 17.8667 3H6.13333M6.13333 21.2667C7.31154 21.2667 8.26667 20.3115 8.26667 19.1333C8.26667 17.9551 7.31154 17 6.13333 17M6.13333 21.2667C4.95513 21.2667 4 20.3115 4 19.1333C4 17.9551 4.95513 17 6.13333 17M6.13333 21.2667H17.8667C18.9333 21.2667 20 20.4 20 19.1333C20 17.8667 18.9333 17 17.8667 17H6.13333M4 5V19M16 8V16.5" stroke="#7C7C7C" stroke-width="2" stroke-linecap="round" stroke-linejoin="round"/>
</svg>
