<svg width="16" height="17" viewBox="0 0 16 17" fill="none" xmlns="http://www.w3.org/2000/svg">
<g clip-path="url(#clip0_1106_1870)">
<path d="M12.6286 4.05933C11.7529 3.63647 10.828 3.33538 9.87784 3.16602C9.7478 3.41176 9.63034 3.66415 9.52547 3.92207C8.51346 3.76156 7.48467 3.76156 6.47267 3.92207C6.36779 3.66415 6.25034 3.41176 6.1203 3.16602C5.17017 3.33759 4.24415 3.63869 3.36743 4.06155C1.62657 6.78024 1.15464 9.43141 1.3906 12.0449C2.40995 12.8397 3.55095 13.4452 4.76431 13.8327C5.03698 13.4452 5.27923 13.0335 5.48688 12.6028C5.09256 12.4479 4.71188 12.2553 4.34902 12.0294C4.44446 11.9564 4.53779 11.8811 4.62798 11.8081C6.76421 12.8685 9.23707 12.8685 11.3733 11.8081C11.4645 11.8866 11.5579 11.9619 11.6523 12.0294C11.2894 12.2564 10.9077 12.4479 10.5123 12.604C10.72 13.0346 10.9612 13.4452 11.2349 13.8327C12.4493 13.4464 13.5913 12.842 14.6107 12.046C14.8875 9.01519 14.1377 6.38838 12.6286 4.05933ZM5.78576 10.4376C5.12822 10.4376 4.58498 9.80778 4.58498 9.0329C4.58498 8.25803 5.10934 7.62264 5.78366 7.62264C6.45798 7.62264 6.99702 8.25803 6.98549 9.0329C6.97395 9.80778 6.45589 10.4376 5.78576 10.4376ZM10.2155 10.4376C9.55693 10.4376 9.01579 9.80778 9.01579 9.0329C9.01579 8.25803 9.54015 7.62264 10.2155 7.62264C10.8909 7.62264 11.4257 8.25803 11.4142 9.0329C11.4027 9.80778 10.8856 10.4376 10.2155 10.4376Z" fill="#9A9A9A"/>
</g>
<defs>
<clipPath id="clip0_1106_1870">
<rect width="13.3333" height="10.6667" fill="white" transform="translate(1.33398 3.16602)"/>
</clipPath>
</defs>
</svg>
