<svg width="52" height="24" viewBox="0 0 52 24" fill="none" xmlns="http://www.w3.org/2000/svg">
<path d="M0 3.23633V19.2931L1.14792 20.465L2.13887 18.9425L2.81585 17.46L4.61132 15.617L3.89509 14.9058H3.2083L1.50113 17.5201V17.8507L1.41283 17.9509V4.67873L0 3.23633Z" fill="#A4A4A4"/>
<path d="M7.92773 3.69531V19.2512L9.05604 20.4032L14.3149 15.485V3.69531H12.8628V14.8539C12.647 15.3147 11.8425 16.1661 9.38962 17.6987V3.69531H7.93755H7.92773Z" fill="#A4A4A4"/>
<path d="M33.3398 3.69531V19.2512L34.4681 20.4032L39.727 15.485V3.69531H38.2749V14.8539C38.0591 15.3147 37.2546 16.1661 34.8017 17.6987V3.69531H33.3497H33.3398Z" fill="#A4A4A4"/>
<path d="M48.2418 6.66036L45.3278 4.05602H44.1309V20.2931H45.5241V11.0978C46.309 9.91579 47.2018 9.09442 48.1731 8.65369L50.2237 10.7472V20.2931H51.0478L51.9897 19.3215V4.25636L51.3029 3.53516L48.232 6.67038L48.2418 6.66036ZM49.1543 7.8223L50.2335 6.72046V8.4834L49.1543 7.8223ZM45.5339 6.23966L47.1822 7.65202V7.68207C46.3678 8.09275 45.8282 8.52347 45.5339 8.99425V6.23966Z" fill="#A4A4A4"/>
<path d="M23.6348 12.9416C24.037 12.2404 23.674 11.4992 23.6348 11.4391L22.9578 10.1269L22.3299 8.94492C22.2514 8.78466 22.1729 8.61437 22.0846 8.43407C21.5253 7.29217 20.662 5.75962 19.514 3.86646L19.2982 3.50586L18.1797 4.69785V19.6628L18.7389 20.2538H19.4355L23.6348 12.9316V12.9416ZM19.5729 17.3089V6.60102L22.2514 11.5993L19.5729 17.2988V17.3089Z" fill="#A4A4A4"/>
<path d="M52 0H0V1.46244H52V0Z" fill="#A4A4A4"/>
<path d="M52 22.5371H0V23.9995H52V22.5371Z" fill="#A4A4A4"/>
<path d="M28.6688 3.69531H27.2363V20.2629H28.6688V3.69531Z" fill="#A4A4A4"/>
</svg>
