<svg width="16" height="17" viewBox="0 0 16 17" fill="none" xmlns="http://www.w3.org/2000/svg">
<path d="M4.07393 6.88208H3.1156C2.52755 6.88208 2.05078 7.36495 2.05078 7.96052V10.1174C2.05078 10.7129 2.52755 11.1958 3.1156 11.1958H4.07393V6.88208ZM4.07393 6.88208C4.07393 4.49956 5.98075 2.56836 8.33319 2.56836C10.6854 2.56836 12.5924 4.49956 12.5924 6.88208M12.5924 11.1958H13.5508C14.1388 11.1958 14.6156 10.7129 14.6156 10.1174V7.96052C14.6156 7.36495 14.1388 6.88208 13.5508 6.88208H12.5924M12.5924 11.1958V6.88208M12.5924 11.1958C12.5924 12.3869 11.6389 13.3527 10.4628 13.3527L9.398 13.3527M9.398 13.3527C9.398 13.9483 8.92127 14.4311 8.33319 14.4311C7.74511 14.4311 7.26837 13.9483 7.26837 13.3527C7.26837 12.7571 7.74511 12.2742 8.33319 12.2742C8.92127 12.2742 9.398 12.7571 9.398 13.3527Z" stroke="#9A9A9A" stroke-linecap="round" stroke-linejoin="round"/>
</svg>
