<svg width="16" height="17" viewBox="0 0 16 17" fill="none" xmlns="http://www.w3.org/2000/svg">
<path fill-rule="evenodd" clip-rule="evenodd" d="M13.2099 4.11259C13.7836 4.26594 14.2354 4.71772 14.3887 5.29139C14.6673 6.3312 14.6673 8.50065 14.6673 8.50065C14.6673 8.50065 14.6673 10.6701 14.3887 11.7099C14.2354 12.2836 13.7836 12.7354 13.2099 12.8887C12.1701 13.1673 8.00065 13.1673 8.00065 13.1673C8.00065 13.1673 3.8312 13.1673 2.79141 12.8887C2.21773 12.7354 1.76594 12.2836 1.6126 11.7099C1.33398 10.6701 1.33398 8.50065 1.33398 8.50065C1.33398 8.50065 1.33398 6.3312 1.6126 5.29139C1.76594 4.71772 2.21773 4.26592 2.79141 4.11259C3.8312 3.83398 8.00065 3.83398 8.00065 3.83398C8.00065 3.83398 12.1701 3.83398 13.2099 4.11259ZM10.1222 8.50036L6.63737 10.47V6.5306L10.1222 8.50036Z" fill="#9A9A9A"/>
</svg>
