<svg width="70" height="32" viewBox="0 0 70 32" fill="none" xmlns="http://www.w3.org/2000/svg">
<g clip-path="url(#clip0_1000_2982)">
<path d="M0 4.31396V25.723L1.54528 27.2856L2.87925 25.2555L3.79057 23.2789L6.20755 20.8215L5.2434 19.8732H4.31887L2.02075 23.359V23.7998L1.90189 23.9333V6.23717L0 4.31396Z" fill="#861CC4"/>
<path d="M10.6719 4.92822V25.6695L12.1907 27.2054L19.27 20.6478V4.92822H17.3153V19.8064C17.0247 20.4207 15.9417 21.5559 12.6398 23.5993V4.92822H10.6851H10.6719Z" fill="#861CC4"/>
<path d="M44.8789 4.92822V25.6695L46.3978 27.2054L53.477 20.6478V4.92822H51.5223V19.8064C51.2317 20.4207 50.1487 21.5559 46.8468 23.5993V4.92822H44.8921H44.8789Z" fill="#861CC4"/>
<path d="M64.9412 8.8813L61.0185 5.40885H59.4072V27.0583H61.2827V14.7978C62.3393 13.2219 63.5412 12.1267 64.8487 11.5391L67.6091 14.3304V27.0583H68.7185L69.9865 25.7628V5.67596L69.0619 4.71436L64.928 8.89466L64.9412 8.8813ZM66.1695 10.4305L67.6223 8.96143V11.312L66.1695 10.4305ZM61.2959 8.32037L63.5148 10.2035V10.2436C62.4185 10.7912 61.6921 11.3654 61.2959 11.9932V8.32037Z" fill="#861CC4"/>
<path d="M31.817 17.2553C32.3585 16.3204 31.8699 15.3321 31.817 15.2519L30.9057 13.5024L30.0604 11.9264C29.9548 11.7127 29.8491 11.4857 29.7302 11.2453C28.9774 9.72273 27.8151 7.67932 26.2699 5.15512L25.9793 4.67432L24.4736 6.26363V26.2169L25.2265 27.0049H26.1642L31.817 17.2419V17.2553ZM26.3491 23.0783V8.80119L29.9548 15.4656L26.3491 23.065V23.0783Z" fill="#861CC4"/>
<path d="M70 0H0V1.94992H70V0Z" fill="#861CC4"/>
<path d="M70 30.0503H0V32.0002H70V30.0503Z" fill="#861CC4"/>
<path d="M38.5924 4.92822H36.6641V27.0184H38.5924V4.92822Z" fill="#861CC4"/>
</g>
<defs>
<clipPath id="clip0_1000_2982">
<rect width="70" height="32" fill="white"/>
</clipPath>
</defs>
</svg>
