<svg width="24" height="24" viewBox="0 0 24 24" fill="none" xmlns="http://www.w3.org/2000/svg">
<path d="M20.3995 15.865L19.0095 14.475C18.2095 13.675 16.9145 13.675 16.1195 14.475L15.3695 15.225C14.3695 16.225 12.7545 16.225 11.7545 15.225L8.77445 12.245C7.77445 11.245 7.77445 9.63 8.77445 8.63L9.52445 7.88C10.3245 7.08 10.3245 5.785 9.52445 4.99L8.13445 3.6C7.33445 2.8 6.03945 2.8 5.24445 3.6C2.25445 6.59 2.25445 11.44 5.24445 14.435C6.32445 15.515 8.48945 17.68 9.56945 18.76C12.5595 21.75 17.4095 21.75 20.3995 18.76C21.1995 17.96 21.1995 16.665 20.3995 15.865Z" stroke="#7C7C7C" stroke-width="2" stroke-linecap="round" stroke-linejoin="round"/>
</svg>
